<svg xmlns="http://www.w3.org/2000/svg" width="48" height="48" viewBox="0 0 48 48">
  <g id="그룹_128" data-name="그룹 128" transform="translate(-104 -536)">
    <rect id="사각형_73" data-name="사각형 73" width="48" height="48" transform="translate(104 536)" fill="none"/>
    <g id="그룹_12" data-name="그룹 12" transform="translate(119 551)">
      <rect id="사각형_33" data-name="사각형 33" width="18" height="18" fill="none"/>
      <g id="그룹_15" data-name="그룹 15" transform="translate(1.099 4.281)">
        <path id="패스_104" data-name="패스 104" d="M17.276,10.578a26.53,26.53,0,0,0-.262-3.629c-.1-.578-.962-1.107-2.274-1.147-1.158-.035-6.536-.24-11.782.093,0,0-1.334.094-1.378,1.24a43.81,43.81,0,0,0,.088,7.31s.131.867,1.946.947,9.618.094,11.279-.026,1.99-.521,2.121-1.361A32.47,32.47,0,0,0,17.276,10.578Z" transform="translate(-1.465 -5.708)" fill="none" stroke="#fffefa" stroke-linecap="round" stroke-linejoin="round" stroke-width="1.5"/>
        <path id="패스_105" data-name="패스 105" d="M10.258,9.906s-.054,3.106,0,3.97a15.9,15.9,0,0,0,3.29-1.984A5.3,5.3,0,0,0,10.258,9.906Z" transform="translate(-3.657 -6.757)" fill="none" stroke="#fffefa" stroke-linecap="round" stroke-linejoin="round" stroke-width="1.5"/>
      </g>
    </g>
  </g>
</svg>
