<svg xmlns="http://www.w3.org/2000/svg" width="48" height="48" viewBox="0 0 48 48">
  <g id="그룹_126" data-name="그룹 126" transform="translate(-104 -336)">
    <rect id="사각형_14" data-name="사각형 14" width="48" height="48" transform="translate(104 336)" fill="none"/>
    <g id="그룹_11" data-name="그룹 11" transform="translate(119.866 352)">
      <g id="그룹_10" data-name="그룹 10" transform="translate(0.95 1.109)">
        <path id="패스_101" data-name="패스 101" d="M8.453,1.664s-2.973,0-5.286.233A2,2,0,0,0,1.5,3.918a69.651,69.651,0,0,0,.136,10.473s.136,1.185,1.807,1.224a104.248,104.248,0,0,0,10.648-.077,1.668,1.668,0,0,0,1.38-1.729c.117-1.613.136-8.55-.039-10.027S14.67,2.014,13.446,1.9,9.135,1.648,8.453,1.664Z" transform="translate(-1.358 -1.663)" fill="none" stroke="#fffefa" stroke-linecap="round" stroke-linejoin="round" stroke-width="1.5"/>
        <path id="패스_102" data-name="패스 102" d="M10.377,10.442s-2.662.136-2.662,2.662.7,3.031,3.031,3.031,2.861-1.273,2.861-2.861S13.058,10.442,10.377,10.442Z" transform="translate(-3.477 -4.589)" fill="none" stroke="#fffefa" stroke-linecap="round" stroke-linejoin="round" stroke-width="1.5"/>
        <path id="패스_103" data-name="패스 103" d="M18.6,6.122a1.239,1.239,0,0,0-1.209-1.209c-1.147,0-1.376.318-1.376,1.377s.577,1.3,1.3,1.3S18.6,7.339,18.6,6.122Z" transform="translate(-6.245 -2.746)" fill="none" stroke="#fffefa" stroke-linecap="round" stroke-linejoin="round" stroke-width="1.5"/>
      </g>
      <rect id="사각형_32" data-name="사각형 32" width="16" height="16" transform="translate(0.134)" fill="none"/>
    </g>
  </g>
</svg>
