<svg id="그룹_12" data-name="그룹 12" xmlns="http://www.w3.org/2000/svg" width="24" height="24" viewBox="0 0 24 24">
  <rect id="사각형_33" data-name="사각형 33" width="24" height="24" fill="none"/>
  <g id="그룹_15" data-name="그룹 15">
    <path id="패스_104" data-name="패스 104" d="M22.547,12.2A35.373,35.373,0,0,0,22.2,7.363c-.129-.771-1.283-1.476-3.032-1.529-1.544-.047-8.714-.32-15.709.124,0,0-1.778.125-1.837,1.654s-.378,6.972.117,9.746c0,0,.175,1.156,2.594,1.263s12.824.125,15.039-.035,2.653-.694,2.828-1.815A43.294,43.294,0,0,0,22.547,12.2Z" fill="none" stroke="#fffefa" stroke-linecap="round" stroke-linejoin="round" stroke-width="2"/>
    <path id="패스_105" data-name="패스 105" d="M10.266,9.906s-.072,4.141,0,5.293a21.194,21.194,0,0,0,4.387-2.646S12.786,10.086,10.266,9.906Z" fill="none" stroke="#fffefa" stroke-linecap="round" stroke-linejoin="round" stroke-width="2"/>
  </g>
</svg>
