<svg xmlns="http://www.w3.org/2000/svg" width="24" height="24" viewBox="0 0 24 24">
  <g id="그룹_11" data-name="그룹 11" transform="translate(-0.134)">
    <g id="그룹_10" data-name="그룹 10">
      <path id="패스_101" data-name="패스 101" d="M12,1.665s-4.46,0-7.929.35A3,3,0,0,0,1.565,5.046a104.476,104.476,0,0,0,.2,15.71s.2,1.778,2.71,1.836,11.426.379,15.972-.116a2.5,2.5,0,0,0,2.07-2.594c.175-2.419.2-12.825-.058-15.04S21.326,2.19,19.49,2.015,13.023,1.64,12,1.665Z" fill="none" stroke="#fffefa" stroke-linecap="round" stroke-linejoin="round" stroke-width="2"/>
      <path id="패스_102" data-name="패스 102" d="M11.708,10.442s-3.993.2-3.993,3.993,1.049,4.547,4.546,4.547,4.292-1.909,4.292-4.292S15.73,10.442,11.708,10.442Z" fill="none" stroke="#fffefa" stroke-linecap="round" stroke-linejoin="round" stroke-width="2"/>
      <path id="패스_103" data-name="패스 103" d="M19.9,6.726a1.859,1.859,0,0,0-1.813-1.813c-1.72,0-2.064.477-2.064,2.065s.866,1.948,1.948,1.948S19.9,8.552,19.9,6.726Z" fill="none" stroke="#fffefa" stroke-linecap="round" stroke-linejoin="round" stroke-width="2"/>
    </g>
    <rect id="사각형_32" data-name="사각형 32" width="24" height="24" transform="translate(0.134)" fill="none"/>
  </g>
</svg>
