<svg id="swipe-L" xmlns="http://www.w3.org/2000/svg" width="49.813" height="43.897" viewBox="0 0 49.813 43.897">
  <g id="패스_100" data-name="패스 100" transform="translate(-637.07 -503.954)" fill="#f26744">
    <path d="M 655.8859252929688 531.969970703125 C 655.2417602539062 531.969970703125 654.6368408203125 531.7191162109375 654.1825561523438 531.263671875 L 650.1930541992188 527.2745361328125 C 649.7447509765625 526.8262329101562 649.4876708984375 526.2056274414062 649.4876708984375 525.57177734375 C 649.4876708984375 524.938232421875 649.7447509765625 524.3176879882812 650.1929321289062 523.869384765625 L 653.7021484375 520.3609619140625 C 654.1566772460938 519.9061889648438 654.7613525390625 519.655517578125 655.404541015625 519.655517578125 C 656.0458374023438 519.655517578125 656.6494750976562 519.9049682617188 657.1041259765625 520.3579711914062 C 658.0428466796875 521.2936401367188 658.0466918945312 522.81982421875 657.1129150390625 523.76025390625 L 657.058837890625 523.814697265625 C 658.0234375 523.8713989257812 659.052490234375 523.8999633789062 660.13720703125 523.89990234375 C 665.5684814453125 523.8998413085938 670.56005859375 523.1966552734375 670.60986328125 523.1895751953125 C 670.7229614257812 523.1732788085938 670.838623046875 523.1649780273438 670.9530029296875 523.1649780273438 C 672.1421508789062 523.1649780273438 673.1659545898438 524.0538940429688 673.3345336914062 525.2327270507812 C 673.5216064453125 526.547607421875 672.6048583984375 527.7693481445312 671.2910766601562 527.9569091796875 C 670.740478515625 528.0350952148438 665.7574462890625 528.7200317382812 660.1963500976562 528.7200317382812 C 659.4889526367188 528.7200317382812 658.7989501953125 528.7086791992188 658.130126953125 528.6861572265625 C 658.2376098632812 528.961669921875 658.2938232421875 529.2576904296875 658.2938232421875 529.5623168945312 C 658.2938232421875 530.2056884765625 658.0431518554688 530.8104248046875 657.5879516601562 531.2650146484375 C 657.1350708007812 531.7191162109375 656.5300903320312 531.969970703125 655.8859252929688 531.969970703125 Z" stroke="none"/>
    <path d="M 655.8859252929688 530.969970703125 C 656.2459716796875 530.969970703125 656.6067504882812 530.832763671875 656.8812866210938 530.5574951171875 C 657.4313354492188 530.0081176757812 657.4313354492188 529.1166381835938 656.8812866210938 528.5668334960938 L 655.87255859375 527.557861328125 C 657.3015747070312 527.673583984375 658.76708984375 527.719970703125 660.1963500976562 527.719970703125 C 665.782470703125 527.719970703125 670.8322143554688 527.0120239257812 671.1497802734375 526.9669189453125 C 671.9194946289062 526.8570556640625 672.4541015625 526.14404296875 672.3446044921875 525.374267578125 C 672.2442016601562 524.6720581054688 671.64111328125 524.1649780273438 670.9530029296875 524.1649780273438 C 670.8865356445312 524.1649780273438 670.8193969726562 524.1697387695312 670.751708984375 524.179443359375 C 670.6759643554688 524.1903076171875 665.6103515625 524.8998413085938 660.13720703125 524.89990234375 C 658.3623657226562 524.8999633789062 656.5455322265625 524.8253784179688 654.8410034179688 524.628173828125 L 656.4033203125 523.0556640625 C 656.9502563476562 522.5048217773438 656.9481201171875 521.6143798828125 656.3983764648438 521.06640625 C 656.1233520507812 520.7924194335938 655.7638549804688 520.655517578125 655.404541015625 520.655517578125 C 655.044189453125 520.655517578125 654.68408203125 520.7930908203125 654.4091796875 521.0681762695312 L 650.900146484375 524.576416015625 C 650.63623046875 524.8403930664062 650.4876708984375 525.1986694335938 650.4876708984375 525.57177734375 C 650.4876708984375 525.9451904296875 650.63623046875 526.303466796875 650.900146484375 526.5673828125 L 654.890625 530.5574951171875 C 655.1651611328125 530.832763671875 655.5255126953125 530.969970703125 655.8859252929688 530.969970703125 M 655.8859252929688 532.969970703125 C 654.9741821289062 532.969970703125 654.1177978515625 532.6148071289062 653.4745483398438 531.9698486328125 L 649.4860229492188 527.981689453125 C 648.8422241210938 527.337890625 648.4876708984375 526.4820556640625 648.4876708984375 525.57177734375 C 648.4876708984375 524.6749877929688 648.8514404296875 523.7968139648438 649.4857788085938 523.162353515625 L 652.9951171875 519.65380859375 C 653.6382446289062 519.01025390625 654.494140625 518.655517578125 655.404541015625 518.655517578125 C 656.312255859375 518.655517578125 657.16650390625 519.008544921875 657.8099365234375 519.6495361328125 C 658.6861572265625 520.52294921875 658.9869384765625 521.7596435546875 658.7111206054688 522.8824462890625 C 659.1742553710938 522.8941040039062 659.6497802734375 522.89990234375 660.13720703125 522.89990234375 C 665.4696044921875 522.8998413085938 670.4197387695312 522.20654296875 670.4691162109375 522.1995239257812 C 670.6275024414062 522.1766967773438 670.7910766601562 522.1649780273438 670.9530029296875 522.1649780273438 C 672.6365356445312 522.1649780273438 674.0859375 523.4229736328125 674.324462890625 525.0911254882812 C 674.5892333984375 526.9524536132812 673.291748046875 528.6814575195312 671.432373046875 528.9468383789062 C 670.8739624023438 529.0261840820312 665.8260498046875 529.7200317382812 660.1963500976562 529.7200317382812 C 659.8912353515625 529.7200317382812 659.589111328125 529.7178955078125 659.29052734375 529.7138061523438 C 659.2534790039062 530.567626953125 658.9031372070312 531.3648071289062 658.2946166992188 531.9725952148438 C 657.6541137695312 532.6148071289062 656.7977294921875 532.969970703125 655.8859252929688 532.969970703125 Z" stroke="none" fill="#fffefa"/>
  </g>
  <g id="그룹_9" data-name="그룹 9">
    <rect id="사각형_30" data-name="사각형 30" width="49.813" height="43.897" fill="none"/>
  </g>
</svg>
