<svg id="swipe-R" xmlns="http://www.w3.org/2000/svg" width="49.813" height="43.897" viewBox="0 0 49.813 43.897">
  <g id="패스_100" data-name="패스 100" transform="translate(-635.964 -503.954)" fill="#f26744">
    <path d="M 666.9605102539062 531.969970703125 C 666.3163452148438 531.969970703125 665.7113647460938 531.7191162109375 665.257080078125 531.263671875 C 664.8032836914062 530.8104248046875 664.5526123046875 530.2056884765625 664.5526123046875 529.5623168945312 C 664.5526123046875 529.2576904296875 664.6088256835938 528.961669921875 664.7163696289062 528.6860961914062 C 664.047607421875 528.7086791992188 663.3575439453125 528.719970703125 662.6500854492188 528.7200317382812 C 657.0897216796875 528.7200927734375 652.1060180664062 528.0350952148438 651.5560302734375 527.9569702148438 C 650.2416381835938 527.7693481445312 649.3248901367188 526.5476684570312 649.5117797851562 525.2334594726562 C 649.6804809570312 524.0538940429688 650.7042846679688 523.1649780273438 651.8934326171875 523.1649780273438 C 652.0078125 523.1649780273438 652.1234741210938 523.1732788085938 652.2371215820312 523.1896362304688 C 652.286376953125 523.1966552734375 657.2781982421875 523.89990234375 662.709228515625 523.89990234375 C 663.7940673828125 523.89990234375 664.8230590820312 523.8713989257812 665.78759765625 523.814697265625 L 665.7337036132812 523.7604370117188 C 664.7997436523438 522.81982421875 664.8035888671875 521.2936401367188 665.7420654296875 520.358154296875 C 666.1969604492188 519.9049682617188 666.8005981445312 519.655517578125 667.44189453125 519.655517578125 C 668.0850830078125 519.655517578125 668.6897583007812 519.9061889648438 669.1445922851562 520.361328125 L 672.6533203125 523.8692016601562 C 673.1016845703125 524.3176879882812 673.3587646484375 524.938232421875 673.3587646484375 525.57177734375 C 673.3587646484375 526.2056274414062 673.1016845703125 526.8262329101562 672.6533813476562 527.2744750976562 L 668.6629028320312 531.2646484375 C 668.2095947265625 531.7191162109375 667.6046752929688 531.969970703125 666.9605102539062 531.969970703125 Z" stroke="none"/>
    <path d="M 666.9605102539062 530.969970703125 C 667.3209228515625 530.969970703125 667.6812744140625 530.832763671875 667.955810546875 530.5574951171875 L 671.9462890625 526.5673828125 C 672.210205078125 526.303466796875 672.3587646484375 525.9451904296875 672.3587646484375 525.57177734375 C 672.3587646484375 525.1986694335938 672.210205078125 524.8403930664062 671.9462890625 524.576416015625 L 668.437255859375 521.0681762695312 C 668.1624145507812 520.7930908203125 667.80224609375 520.655517578125 667.44189453125 520.655517578125 C 667.0825805664062 520.655517578125 666.7230834960938 520.7924194335938 666.4480590820312 521.06640625 C 665.8983154296875 521.6143798828125 665.8961791992188 522.5048217773438 666.443115234375 523.0556640625 L 668.0054321289062 524.628173828125 C 666.3009033203125 524.8253784179688 664.4840698242188 524.89990234375 662.709228515625 524.89990234375 C 657.236083984375 524.89990234375 652.1704711914062 524.1903076171875 652.0947265625 524.179443359375 C 652.0270385742188 524.1697387695312 651.9598999023438 524.1649780273438 651.8934326171875 524.1649780273438 C 651.205322265625 524.1649780273438 650.6022338867188 524.6720581054688 650.5018310546875 525.374267578125 C 650.392333984375 526.14404296875 650.9269409179688 526.8570556640625 651.6966552734375 526.9669189453125 C 652.0142211914062 527.0120239257812 657.06396484375 527.7200927734375 662.6500854492188 527.719970703125 C 664.079345703125 527.719970703125 665.5448608398438 527.673583984375 666.973876953125 527.557861328125 L 665.9651489257812 528.5668334960938 C 665.4151000976562 529.1166381835938 665.4151000976562 530.0081176757812 665.9651489257812 530.5574951171875 C 666.2396850585938 530.832763671875 666.6004638671875 530.969970703125 666.9605102539062 530.969970703125 M 666.9605102539062 532.969970703125 C 666.0487060546875 532.969970703125 665.1923217773438 532.6148071289062 664.549072265625 531.9698486328125 C 663.943115234375 531.3646850585938 663.5929565429688 530.567626953125 663.555908203125 529.7137451171875 C 663.2572631835938 529.7178955078125 662.955322265625 529.719970703125 662.6500854492188 529.7200317382812 C 657.0211181640625 529.7200927734375 651.9725341796875 529.0261840820312 651.4154052734375 528.947021484375 C 649.5546875 528.6814575195312 648.2572021484375 526.9524536132812 648.5217895507812 525.0926513671875 C 648.760498046875 523.4229736328125 650.2098999023438 522.1649780273438 651.8934326171875 522.1649780273438 C 652.0553588867188 522.1649780273438 652.2189331054688 522.1766967773438 652.379638671875 522.1998291015625 C 652.4266967773438 522.20654296875 657.3770141601562 522.89990234375 662.709228515625 522.89990234375 C 663.1966552734375 522.89990234375 663.6722412109375 522.8941040039062 664.1353759765625 522.8823852539062 C 663.8595581054688 521.7596435546875 664.1602172851562 520.5230102539062 665.0361328125 519.64990234375 C 665.679931640625 519.008544921875 666.5341796875 518.655517578125 667.44189453125 518.655517578125 C 668.352294921875 518.655517578125 669.208251953125 519.01025390625 669.8519897460938 519.6544799804688 L 673.3603515625 523.1620483398438 C 673.9949951171875 523.7968139648438 674.3587646484375 524.6749877929688 674.3587646484375 525.57177734375 C 674.3587646484375 526.4820556640625 674.0042724609375 527.3378295898438 673.3604736328125 527.9815673828125 L 669.3699340820312 531.9718017578125 C 668.7286987304688 532.61474609375 667.872314453125 532.969970703125 666.9605102539062 532.969970703125 Z" stroke="none" fill="#fffefa"/>
  </g>
  <g id="그룹_9" data-name="그룹 9" transform="translate(-301.187 -745.103)">
    <rect id="사각형_30" data-name="사각형 30" width="49.813" height="43.897" transform="translate(301.187 745.103)" fill="none"/>
  </g>
</svg>
