<svg id="picture-swipe-L" xmlns="http://www.w3.org/2000/svg" xmlns:xlink="http://www.w3.org/1999/xlink" width="48" height="48" viewBox="0 0 48 48">
  <defs>
    <filter id="타원_4" x="3" y="6" width="42" height="42" filterUnits="userSpaceOnUse">
      <feOffset dy="3" input="SourceAlpha"/>
      <feGaussianBlur stdDeviation="3" result="blur"/>
      <feFlood flood-opacity="0.161"/>
      <feComposite operator="in" in2="blur"/>
      <feComposite in="SourceGraphic"/>
    </filter>
  </defs>
  <rect id="사각형_56" data-name="사각형 56" width="48" height="48" fill="none"/>
  <g id="그룹_117" data-name="그룹 117" transform="translate(-2189 -4701)">
    <g transform="matrix(1, 0, 0, 1, 2189, 4701)" filter="url(#타원_4)">
      <circle id="타원_4-2" data-name="타원 4" cx="12" cy="12" r="12" transform="translate(12 12)" fill="#f7f5ef"/>
    </g>
    <path id="패스_498" data-name="패스 498" d="M694.622,410.2a1.345,1.345,0,0,0,.951-2.3l-2.627-2.627,2.855-2.855a1.345,1.345,0,0,0-1.9-1.9l-3.807,3.806a1.344,1.344,0,0,0,0,1.9l3.579,3.579A1.34,1.34,0,0,0,694.622,410.2Z" transform="translate(1519.805 4319.875)" fill="#1f2441"/>
  </g>
</svg>
